# Wavefront OBJ file generated by LithUnwrap
# num_vertices: 24
# num_vertex_normals: 24
# num_uvs: 96
# num_faces: 32
# num_groups: 1

mtllib container blue closed.mtl

v -4.031500 0.000260 -1.487800
v -4.031500 0.000000 1.487800
v -4.031500 2.492500 -1.487800
v -4.031500 2.492200 1.487800
v 4.031500 0.000260 -1.487800
v 4.031500 0.000000 1.487800
v 4.031500 2.492500 -1.487800
v 4.031500 2.492200 1.487800
v -4.030800 -0.236890 -1.290800
v -4.030800 -0.236890 -1.424800
v -4.030800 0.000440 -1.290800
v -4.030800 0.000440 -1.424800
v 3.964200 -0.237080 -1.291000
v 3.964200 -0.237080 -1.425000
v 3.964200 0.000270 -1.291000
v 3.964200 0.000270 -1.425000
v -4.030800 -0.236890 1.290800
v -4.030800 -0.236890 1.424800
v -4.030800 0.000440 1.290800
v -4.030800 0.000440 1.424800
v 3.964200 -0.237080 1.290900
v 3.964200 -0.237080 1.425000
v 3.964200 0.000270 1.290900
v 3.964200 0.000270 1.425000
# num_vertices: 24

vn -0.577333 -0.577333 -0.577384
vn -0.408260 -0.408260 0.816485
vn -0.408262 0.816524 -0.408180
vn -0.816483 0.408241 0.408283
vn 0.816485 -0.408242 -0.408278
vn 0.408260 -0.816520 0.408189
vn 0.408262 0.408262 -0.816483
vn 0.577331 0.577331 0.577389
vn -0.577350 -0.577350 0.577350
vn -0.408273 -0.408243 -0.816487
vn -0.707098 0.000000 0.707116
vn -0.894429 0.000000 -0.447209
vn 0.816497 -0.408248 0.408248
vn 0.408224 -0.816507 -0.408253
vn 0.447232 0.000000 0.894418
vn 0.707098 0.000000 -0.707116
vn -0.577355 -0.577348 -0.577348
vn -0.408273 -0.408243 0.816487
vn -0.707102 0.000000 -0.707111
vn -0.894429 0.000000 0.447209
vn 0.816495 -0.408250 -0.408250
vn 0.408224 -0.816507 0.408253
vn 0.447223 0.000000 -0.894423
vn 0.707098 0.000000 0.707116
# num_vertex_normals: 24

vt 0.010722 0.998237
vt 0.002078 0.998237
vt 0.002087 0.765355
vt 0.010731 0.765355
vt 0.010722 0.998237
vt 0.002087 0.765355
vt 0.010230 0.764989
vt 0.010230 0.997861
vt 0.001586 0.997861
vt 0.001577 0.764989
vt 0.010230 0.764989
vt 0.001586 0.997861
vt 0.016126 0.883678
vt 0.007116 0.883678
vt 0.007116 0.864998
vt 0.016126 0.864998
vt 0.016126 0.883678
vt 0.007116 0.864998
vt 0.007056 0.883648
vt 0.007056 0.864968
vt 0.016066 0.864968
vt 0.016066 0.883648
vt 0.007056 0.883648
vt 0.016066 0.864968
vt 0.043079 0.787746
vt 0.043079 0.982255
vt 0.034912 0.982255
vt 0.034922 0.787746
vt 0.043079 0.787746
vt 0.034912 0.982255
vt 0.002404 0.998058
vt 0.002398 0.766072
vt 0.010063 0.766072
vt 0.010069 0.998058
vt 0.002404 0.998058
vt 0.010063 0.766072
vt 0.001868 0.766072
vt 0.009533 0.766072
vt 0.009527 0.998058
vt 0.001862 0.998058
vt 0.001868 0.766072
vt 0.009527 0.998058
vt 0.016206 0.841203
vt 0.016206 0.858953
vt 0.006296 0.858953
vt 0.006296 0.841203
vt 0.016206 0.841203
vt 0.006296 0.858953
vt 0.006216 0.841143
vt 0.016126 0.841143
vt 0.016126 0.858903
vt 0.006216 0.858903
vt 0.006216 0.841143
vt 0.016126 0.858903
vt 0.044262 0.982124
vt 0.034819 0.982124
vt 0.034809 0.786745
vt 0.044252 0.786745
vt 0.044262 0.982124
vt 0.034809 0.786745
vt 0.980946 0.998736
vt 0.980946 0.785222
vt -0.000044 0.785222
vt -0.000044 0.998736
vt 0.980946 0.998736
vt -0.000044 0.785222
vt 0.981608 0.999590
vt 0.000618 0.999590
vt 0.000618 0.786076
vt 0.981608 0.786076
vt 0.981608 0.999590
vt 0.000618 0.786076
vt 0.008632 0.999327
vt 0.008632 0.783209
vt 0.314238 0.783234
vt 0.314238 0.999352
vt 0.008632 0.999327
vt 0.314238 0.783234
vt 0.920394 0.798127
vt 0.920394 0.986217
vt 0.006375 0.986217
vt 0.006375 0.798127
vt 0.920394 0.798127
vt 0.006375 0.986217
vt 0.920394 0.987474
vt 0.006375 0.987474
vt 0.006375 0.799375
vt 0.920394 0.799375
vt 0.920394 0.987474
vt 0.006375 0.799375
vt 0.810055 0.262279
vt 0.540688 0.262309
vt 0.540688 0.002669
vt 0.810055 0.002649
vt 0.810055 0.262279
vt 0.540688 0.002669
# num_uvs: 96

g Container_brown

usemtl tex_shipping container01_d
f 23/1/23 21/2/21 17/3/17 
f 19/4/19 23/5/23 17/6/17 
f 24/7/24 20/8/20 18/9/18 
f 22/10/22 24/11/24 18/12/18 
f 20/13/20 19/14/19 17/15/17 
f 18/16/18 20/17/20 17/18/17 
f 24/19/24 22/20/22 21/21/21 
f 23/22/23 24/23/24 21/24/21 
f 22/25/22 18/26/18 17/27/17 
f 21/28/21 22/29/22 17/30/17 
f 9/31/9 13/32/13 15/33/15 
f 11/34/11 9/35/9 15/36/15 
f 10/37/10 12/38/12 16/39/16 
f 14/40/14 10/41/10 16/42/16 
f 9/43/9 11/44/11 12/45/12 
f 10/46/10 9/47/9 12/48/12 
f 13/49/13 14/50/14 16/51/16 
f 15/52/15 13/53/13 16/54/16 
f 9/55/9 10/56/10 14/57/14 
f 13/58/13 9/59/9 14/60/14 
f 7/61/7 5/62/5 1/63/1 
f 3/64/3 7/65/7 1/66/1 
f 8/67/8 4/68/4 2/69/2 
f 6/70/6 8/71/8 2/72/2 
f 8/73/8 6/74/6 5/75/5 
f 7/76/7 8/77/8 5/78/5 
f 8/79/8 7/80/7 3/81/3 
f 4/82/4 8/83/8 3/84/3 
f 6/85/6 2/86/2 1/87/1 
f 5/88/5 6/89/6 1/90/1 
f 4/91/4 3/92/3 1/93/1 
f 2/94/2 4/95/4 1/96/1 
# num_faces: 32

